<svg width="35" height="47" viewBox="0 0 35 47" fill="none" xmlns="http://www.w3.org/2000/svg">
<path d="M15.752 38V15.2715H8.50977V12.7402H26.334L25.9121 15.2715H19.0391V38H15.752Z" fill="black"/>
<path d="M1.68 30.1777V12.8977H4.284L10.26 25.1377L16.236 12.8977H18.84V30.1777H16.14V19.1017L10.836 30.1777H9.684L4.392 19.1017V30.1777H1.68Z" fill="black"/>
<path d="M26.49 30.6999C25.05 30.6999 23.8167 30.3866 22.79 29.7599C21.7633 29.1266 20.9733 28.2466 20.42 27.1199C19.8733 25.9932 19.6 24.6866 19.6 23.1999C19.6 21.7132 19.8733 20.4066 20.42 19.2799C20.9733 18.1532 21.7633 17.2766 22.79 16.6499C23.8167 16.0166 25.05 15.6999 26.49 15.6999C27.93 15.6999 29.1633 16.0166 30.19 16.6499C31.2233 17.2766 32.0133 18.1532 32.56 19.2799C33.1133 20.4066 33.39 21.7132 33.39 23.1999C33.39 24.6866 33.1133 25.9932 32.56 27.1199C32.0133 28.2466 31.2233 29.1266 30.19 29.7599C29.1633 30.3866 27.93 30.6999 26.49 30.6999ZM26.49 28.4299C27.4567 28.4366 28.26 28.2232 28.9 27.7899C29.5467 27.3566 30.03 26.7466 30.35 25.9599C30.6767 25.1732 30.84 24.2532 30.84 23.1999C30.84 22.1466 30.6767 21.2332 30.35 20.4599C30.03 19.6799 29.5467 19.0732 28.9 18.6399C28.26 18.2066 27.4567 17.9832 26.49 17.9699C25.5233 17.9632 24.72 18.1766 24.08 18.6099C23.44 19.0432 22.9567 19.6532 22.63 20.4399C22.31 21.2266 22.15 22.1466 22.15 23.1999C22.15 24.2532 22.31 25.1699 22.63 25.9499C22.95 26.7232 23.43 27.3266 24.07 27.7599C24.7167 28.1932 25.5233 28.4166 26.49 28.4299Z" fill="black"/>
</svg>
